PathFileType	4	(X/Y/Z)	C:/Users/beibeiliu/ov580/test_trc/User3\sequence.28_training_dense_left.trc
DataRate	CameraRate	NumFrames	NumMarkers	Units	OrigDataRate	OrigDataStartFrame	OrigNumFrames
120	120	19	19	mm	120	1	106
Frame#	Time	ThumbCMC			ThumbMCP			ThumbIP			ThumbTip			IndexMCP			IndexPIP			IndexTip			MiddleMCP			MiddlePIP			MiddleTip			RingMCP			RingPIP			RingTip			PinkyMCP			PinkyPIP			PinkyTip			BackHand1			BackHand2			BackHand3	
		X0	Y0	Z0	X1	Y1	Z1	X2	Y2	Z2	X3	Y3	Z3	X4	Y4	Z4	X5	Y5	Z5	X6	Y6	Z6	X7	Y7	Z7	X8	Y8	Z8	X9	Y9	Z9	X10	Y10	Z10	X11	Y11	Z11	X12	Y12	Z12	X13	Y13	Z13	X14	Y14	Z14	X15	Y15	Z15	X16	Y16	Z16	X17	Y17	Z17	X18	Y18	Z18	
0	0	-162.033	26.6132	1.47742	-149.131	34.4499	-23.4463	-133.221	47.1621	-46.1755	-124.087	55.7878	-68.0639	-196.101	49.4549	-62.292	-183.049	21.6831	-74.8539	-176.742	7.84013	-40.6804	-212.219	40.254	-65.2253	-198.958	10.5375	-73.7794	-193.061	0.597362	-35.7876	-229.387	35.8548	-63.4494	-219.852	12.0023	-76.8499	-206.473	-2.70901	-48.5112	-253.011	33.8951	-44.9787	-258.343	38.4505	-61.7938	-263.388	48.0964	-83.5966	-231.493	39.7611	-3.68001	-224.191	20.067	25.532	-198.083	42.7406	8.6644	
1	0.00833333	-150.378	21.6948	-6.44567	-133.555	27.0537	-29.8559	-121.99	33.6571	-53.8562	-107.381	38.6658	-75.2778	-178.961	42.842	-72.3021	-171.768	9.79302	-79.9545	-168.145	2.27426	-45.8969	-194.718	35.269	-75.411	-187.424	6.51642	-80.6281	-183.673	-2.14923	-40.0759	-217.596	34.6196	-69.7482	-206.68	8.53457	-80.9926	-195.215	-4.01241	-47.0621	-234.162	38.0513	-49.7197	-242.932	45.8678	-74.7574	-248.472	52.1888	-91.2269	-215.958	42.3587	-9.66101	-210.322	30.3352	16.8316	-180.389	44.0182	-1.88051	
2	0.0166667	-138.497	15.1673	-9.46078	-122.824	16.6015	-32.1711	-104.61	22.1359	-61.0913	-95.4319	21.3801	-76.1915	-158.76	32.0769	-82.3662	-160.437	2.88697	-85.5673	-153.508	-5.04548	-53.4972	-182.457	31.2918	-79.9838	-176.595	-1.38214	-83.4831	-170.841	-6.67238	-44.93	-197.68	33.1816	-75.0913	-194.188	-0.00182576	-82.0548	-186.991	-7.22679	-50.4239	-220.277	40.7104	-58.4729	-226.387	44.5126	-81.208	-229.274	49.1343	-101.231	-201.093	45.9185	-17.9217	-196.011	33.804	8.91732	-166.338	41.2063	-6.88984	
3	0.025	-125.194	11.1789	-15.6473	-112.995	8.35362	-37.018	-95.4039	8.49128	-61.1028	-82.9067	5.4923	-75.4987	-148.783	21.5744	-85.5126	-145.708	-11.1688	-85.4702	-148.883	-13.5508	-55.7318	-167.513	22.6112	-83.5239	-166.31	-12.8338	-83.2387	-164.006	-12.4241	-45.2437	-184.557	23.0895	-82.0958	-184.686	-8.60511	-84.0122	-176.524	-15.4732	-55.5179	-202.809	33.6961	-63.403	-208.055	38.3485	-86.954	-214.988	42.719	-107.181	-186.871	42.884	-27.434	-188.567	34.0818	3.03348	-152.956	38.5427	-14.7249	
4	0.0333333	-120.214	2.78131	-11.1629	-101.618	-0.227022	-36.909	-82.8936	-3.58764	-57.5838	-70.063	-7.14117	-74.6529	-134.592	12.5092	-84.2584	-136.337	-20.1245	-86.9171	-134.13	-23.6755	-52.6012	-154.554	7.29134	-88.1101	-153.121	-24.7198	-79.1013	-151.775	-21.6661	-43.9608	-178.422	11.2736	-81.3073	-172.776	-20.9123	-81.6567	-167.308	-20.8758	-48.9894	-197.335	24.7527	-67.9074	-195.637	26.047	-87.8461	-203.163	29.7236	-110.196	-177.413	37.1328	-28.6653	-173.386	30.1725	-0.0986864	-143.93	31.089	-16.3959	
5	0.0416667	-111.284	-4.27751	-12.3014	-94.3331	-9.87169	-33.004	-76.5273	-13.3063	-58.0875	-61.8895	-19.4857	-73.2375	-125.375	1.97879	-81.1496	-131.512	-32.5397	-80.1954	-127.16	-32.8004	-49.3786	-150.41	-3.81371	-83.9827	-146.214	-34.7847	-78.2293	-147.325	-29.3907	-40.3187	-170.745	0.218322	-79.1617	-167.851	-31.4574	-77.189	-161.825	-31.5678	-46.9116	-186.699	15.0171	-65.3056	-187.698	14.6741	-84.2372	-194.894	15.1313	-108.324	-165.941	26.939	-24.2647	-167.747	21.1758	3.28159	-132.562	22.1597	-13.6915	
6	0.05	-105.939	-13.6882	-9.82018	-89.1684	-20.7663	-31.545	-76.0744	-27.2958	-52.2732	-62.8417	-31.664	-70.8449	-127.389	-12.2134	-81.8692	-124.956	-41.3675	-80.5582	-127.171	-41.9929	-47.1114	-148.601	-14.8643	-82.3881	-143.627	-44.1089	-77.8063	-142.798	-38.2966	-36.1792	-163.397	-8.33405	-75.8244	-164.596	-40.0171	-76.7722	-154.293	-39.237	-42.2004	-186.051	4.31826	-64.086	-187.178	4.15157	-88.1888	-191.443	4.89291	-108.111	-162.052	15.339	-23.0004	-166.182	12.249	6.50816	-132.733	14.3559	-10.5027	
7	0.0583333	-107.867	-19.4641	-4.07733	-92.2249	-27.1011	-27.8437	-73.8327	-31.058	-54.3658	-61.5044	-37.4742	-68.7515	-127.812	-17.1032	-80.5847	-126.491	-49.8452	-75.1765	-129.495	-48.1267	-45.0853	-148.538	-20.8209	-81.0313	-146.172	-50.2973	-75.3707	-140.693	-41.9148	-33.5316	-165.08	-15.1264	-75.8414	-168.368	-46.3236	-74.1738	-159.306	-46.058	-42.8911	-187.244	-0.721015	-65.0454	-188.045	-2.60308	-83.225	-192.624	-2.45969	-109.627	-169.209	10.3953	-21.6854	-167.741	7.283	5.66983	-131.469	10.0254	-10.5204	
8	0.0666667	-110.736	-20.4068	-6.89881	-95.8482	-27.3119	-30.8248	-81.2516	-31.8895	-53.4584	-65.7654	-36.569	-72.9618	-129.829	-16.5843	-78.6254	-129.929	-51.7873	-74.3879	-126.519	-46.1386	-41.0258	-150.331	-19.1457	-79.1312	-150.63	-53.5642	-71.6949	-145.347	-45.6247	-34.7193	-169.562	-17.7829	-76.6347	-170.063	-48.0094	-74.5989	-157.591	-46.4855	-41.8699	-190.412	-3.7042	-59.8984	-190.755	-4.3461	-81.4386	-196.389	-4.11395	-106.761	-169.19	8.79962	-23.1697	-170.696	4.91543	8.88174	-135.996	6.73718	-9.68925	
9	0.075	-114.446	-19.657	-5.4103	-93.6677	-26.7448	-29.6421	-77.7961	-31.0092	-50.3859	-69.9515	-37.0024	-70.0203	-130.698	-17.6383	-79.165	-133.007	-48.9703	-78.2656	-130.891	-48.3182	-42.9225	-150.435	-21.1752	-80.5325	-147.483	-53.3132	-73.7512	-145.508	-46.732	-35.485	-167.927	-18.2348	-77.8249	-172.432	-48.1724	-75.7961	-160.947	-47.7017	-42.5	-187.656	-4.72526	-59.0606	-193.701	-5.12208	-84.3108	-196.278	-5.87893	-105.913	-173.854	9.35267	-22.4924	-172.351	6.77576	4.88314	-136.873	7.63883	-9.15358	
10	0.0833333	-112.297	-18.13	-7.14019	-95.9211	-25.6226	-29.0265	-79.2237	-30.2284	-52.5423	-65.9187	-35.0955	-70.9649	-133.169	-18.1543	-78.9899	-129.993	-48.8093	-76.8327	-131.545	-45.3907	-41.6152	-151.499	-22.6875	-80.9254	-147.994	-52.0846	-73.6477	-149.146	-46.2579	-35.1519	-174.054	-18.606	-75.2284	-171.224	-48.4223	-75.0641	-159.553	-47.5244	-40.6218	-188.038	-5.02405	-59.7301	-193.395	-4.70397	-83.7872	-196.808	-6.33439	-105.379	-173.932	9.24012	-22.188	-172.11	5.6617	3.71582	-139.326	8.94963	-9.96594	
11	0.0916667	-116.045	-20.0362	-4.39209	-93.5533	-26.1645	-26.6625	-77.7402	-30.0353	-50.4682	-69.607	-35.0731	-69.4434	-131.383	-18.4077	-79.1707	-129.694	-49.8253	-74.5081	-130.75	-47.3	-43.8624	-151.394	-20.3314	-78.859	-149.785	-53.6427	-71.7334	-147.284	-44.175	-31.6311	-172.528	-17.4387	-73.6509	-167.676	-47.9606	-75.6704	-162.163	-49.9478	-41.8581	-187.024	-4.04203	-64.7336	-191.804	-6.23067	-81.528	-199.831	-6.41885	-106.718	-173.961	10.7961	-23.7	-174.668	6.07562	6.21532	-136.763	6.99588	-11.7402	
12	0.1	-116.477	-18.2353	-7.99829	-99.7	-26.8437	-28.8363	-78.1789	-31.383	-50.5603	-66.5039	-35.3537	-68.1154	-131.068	-19.8349	-79.4322	-127.709	-50.3409	-74.5032	-129.064	-48.2538	-43.4928	-149.936	-22.3107	-79.5838	-149.078	-54.3553	-70.2586	-147.855	-47.6785	-33.9067	-174.418	-18.9826	-74.7839	-165.966	-50.4709	-73.4155	-160.639	-49.3	-40.9603	-191.672	-6.7255	-60.4195	-194.364	-8.13044	-80.4499	-198.871	-6.57903	-106.674	-170.312	8.24148	-25.1348	-172.347	4.15321	8.55838	-139.399	5.87979	-8.94294	
13	0.108333	-115.061	-20.9958	-3.44125	-95.5081	-26.7063	-28.2326	-78.5512	-30.1244	-51.5975	-66.9339	-35.7098	-69.0505	-135.173	-17.4121	-76.02	-130.981	-50.1593	-75.9376	-130.236	-46.8297	-39.3701	-152.324	-23.7761	-80.1077	-147.793	-54.6289	-70.3074	-145.562	-48.432	-33.7873	-172.026	-20.5106	-75.3239	-169.363	-48.8825	-74.5207	-160.512	-50.7973	-41.8031	-188.701	-5.96405	-63.5281	-195.343	-9.21011	-84.9662	-197.559	-8.06205	-105.155	-171.787	7.28068	-23.9134	-172.7	5.5555	7.4434	-139.595	7.42	-5.60444	
14	0.116667	-113.36	-20.0375	-3.10299	-97.0339	-27.1418	-24.3526	-78.921	-30.9841	-48.4497	-69.3259	-35.1027	-67.3728	-135.869	-20.3265	-76.9238	-133.029	-51.1412	-73.39	-130.622	-47.4711	-39.4953	-151.529	-21.5038	-77.0203	-147.469	-54.2041	-70.8654	-147.686	-45.16	-29.6178	-171.998	-20.2791	-73.5738	-169.335	-50.7945	-72.0251	-160.132	-51.3167	-42.0078	-193.334	-6.66796	-62.4744	-196.266	-8.65062	-79.2597	-200.528	-7.62652	-106.131	-175.794	7.58316	-19.6463	-172.051	2.46734	7.44566	-141.104	6.60778	-7.51713	
15	0.125	-113.906	-20.3417	-3.95933	-98.1056	-26.2035	-28.086	-78.8787	-28.4352	-53.2307	-68.3916	-35.4117	-66.2333	-133.831	-19.2422	-76.251	-129.303	-51.6078	-73.0174	-132.508	-47.2253	-36.8348	-155.29	-21.2538	-76.542	-146.77	-56.0292	-68.3512	-146.035	-48.2118	-31.4679	-174.067	-19.8072	-72.1704	-168.657	-50.0145	-72.6982	-161.835	-50.8831	-39.8316	-194.434	-7.30687	-60.6471	-194.659	-8.9813	-80.332	-197.937	-8.22814	-104.519	-173.75	6.55669	-22.6127	-172.645	2.7511	8.48763	-139.393	8.66754	-9.98348	
16	0.133333	-113.535	-20.0506	-2.5205	-96.1521	-25.4892	-30.3608	-81.0989	-29.2993	-51.0187	-67.7371	-32.9134	-70.8213	-135.107	-18.0713	-75.1302	-133.237	-52.5104	-70.8905	-131.493	-49.9646	-39.1694	-157.155	-21.9264	-74.8026	-151.488	-56.1485	-69.4193	-147.963	-49.2036	-31.8159	-171.036	-22.2689	-72.59	-170.338	-53.3667	-70.1401	-160.765	-49.9622	-35.8648	-193.156	-9.34012	-61.4044	-195.834	-10.7496	-79.5329	-199.077	-11.3903	-102.164	-174.959	5.42388	-18.1477	-172.47	3.69766	7.12573	-142.092	7.93284	-10.4196	
17	0.141667	-112.718	-21.0145	-3.6382	-99.1025	-28.7785	-25.1149	-81.6923	-32.1081	-48.5645	-67.6777	-36.1176	-67.6792	-132.684	-20.1641	-74.4319	-133.412	-54.9028	-70.3404	-131.35	-52.3408	-39.2098	-155.984	-28.1418	-76.9978	-149.034	-57.759	-69.3795	-149.036	-48.2301	-28.3459	-175.044	-25.7562	-72.2967	-171.531	-55.2564	-70.885	-157.582	-52.4953	-38.2625	-192.333	-12.3988	-57.4754	-198.387	-14.1052	-81.0604	-201.013	-15.1486	-99.1099	-174.213	4.03485	-20.3458	-175.717	0.598304	7.65733	-144.415	4.95401	-7.95958	
18	0.15	-112.994	-22.2065	-4.16205	-101.182	-30.2036	-24.2768	-80.1434	-33.3351	-51.0745	-72.3114	-37.9644	-68.1899	-134.735	-22.8066	-72.5288	-131.591	-57.0919	-71.2748	-134.226	-54.603	-37.6103	-155.883	-27.6471	-75.2053	-152.131	-62.3881	-65.402	-149.515	-54.5612	-31.1048	-175.486	-26.7523	-70.0164	-172.391	-59.2752	-67.9399	-159.858	-54.3755	-34.4287	-194.43	-15.9453	-56.4399	-197.085	-16.8794	-80.5132	-200.491	-17.707	-98.7055	-174.057	0.575032	-17.9953	-176.358	-0.883161	11.5585	-145.675	0.489115	-6.57632	
